/* XPM */
static char *_3c966c384ef4da48f249c4dd69409ccyS5vGwtUb0L5IwaE[] = {
/* columns rows colors chars-per-pixel */
"64 64 12 1 ",
"  c #440613",
". c #5A1C12",
"X c #7B2714",
"o c #374E21",
"O c #3C5624",
"+ c #4B692F",
"@ c #526342",
"# c #893D24",
"$ c #9C4315",
"% c #B15A1F",
"& c #BC5B1A",
"* c #D77BBA",
/* pixels */
"                                                              **",
"&&&&&&&&&&&&   &&&$&&&&&&&&&&   &&$&&$&&&&&&&&   &&$$&$&&&&&&&&&",
"$$&&$$$$&$$$& &$$$$$$$$$$$$$$& &$$$$$$$$$$$$$$& &$$$$&$$$$$$$&$$",
"$$$$$$$$$$$$# &$$$$$$$$$$$$$$# &$$$$$$$$$$$$$$# &$$$$$$$$$$$$$$$",
"$$$$$$$$$$$$# &$$$$$$$$$$$$$$# &$$$$$$$$$$$$$$# &$$$$$$$$$$$$$$$",
"$$$$$$$$$$$$# &$$$$$$$$$$$$$$# &$$$$$$$$$$$$$$# &$$$$$$$$$$$$$$$",
"$$$$$$$$$$$$# &$$$$$$$$$$$$$$# &$$$$$$$$$$$$$$# &$$$$$$$$$$$$$$$",
" $$$$$$$$$$$X $$$# $$$$$$$$$$X $$$$$$$$$$$$$$$X $$$$$$$$$$ %$$$$",
"  $$$$$$$$$X   $$#  $$$$$$$$X   $$$$$$$$$$$$$X   $$$$$$$$  %$$$$",
"                                                                ",
"&&&&&   &&&&&&&&&.&&&   &&&&.&&&&&&&&&   &&&&..&&&&&&&&   &&&&&&",
"$&$$$& &$$&$$$$$&&$$$& &$$$&&&$$$$$&$$& &$$$$&.$$&$$&$$& &$$$&$$",
"$$$$$# &$$$$$$$$$$$$$# &$$$$$$$$$$$$$$# &$$$$$$$$$$$$$$# &$$$$$$",
"$$$$$#  %$$$$$$$$$$$$# &$$$$$$$$$$$$$$# &$$$$$$$$$$$$$$# &$$$$$$",
"$$$$$# & $$$$$$$$$$$$# &$$$$$$$$$$$$$$# &$$$$$$$$$$$$$$# &$$$$$$",
"$$$$$# &$$$$$$$$$$$$$# &$$$$$$$$$$$$$$# &$$$$$$$$$$$$$$# &$$$$$$",
"$$$$$X $$$$$$$$$$$$$$X $$$$$$$$$$$$$$$X $$$$$$$$$$$$$$$X $$$$$$$",
"$$$$X   $$$$$$$$$$$$X   $$$$$$$$$$$$$X   $$$$$$$$$$$$$X   $$$$$$",
"                                                                ",
"&&&&&&&&   &&&&.&&&&&&&&   &&&&&&  &&&&&   &&&.&&&&&&&&&&   &&&&",
"$$$$$$$$& &&$$&& $$$&$$$& &$&$$$$& $$$$$& &$$&&$$$$$$$$$$# &$$&&",
"$$$$$$$$# &$$$$$$$$$$$$$# &$$$$$$$$$$$$$# &$$$$$$$$$$$$$$# &$$$$",
"$$$$$$$$  &$$$$$$$$$$$$$# &$$$$$$$$$$$$$# &$$$$$$$$$$$$$$# &$$$$",
"$$$$$$$ # &$$$$$$$$$$$$$# &$$$$$$$$$$$$$# &$$$$$$$$$$$$$$# &$$$$",
"$$$$$$$$# &$$$$$$$$$$$$$# &$$$$$$$$$$$$$# &$$$$$$$$$$$$$$# &$$$$",
"$$$$$$$$X $$$$$$$$$$$$$$X $$$$$$$$$$$$$$X $$$$$$$$$$$$$$$X $$$$$",
"$$$$$$$X   $$$$$$$$$$$$X   $$$$$$$$$$$$X   $$$$$$$$$$$$$X   $$$$",
"                                                                ",
"&   &&&&   &&&&   &&&&&&&&&&.&&   &&&&&&&&&&&&&&&&   &&&&  &&&&&",
"$& &$$$$& &$$$$& &$$$&$$$$$&&.$& &$$&&$$$$&$$$$$&$& &$$$& $&$$$$",
"$# &$$$$$$$$$$$# &$$$$$$$$$$$$$# &$$$$$$$$$$$$$$$$# &$$$$&$$$$$$",
"$# &$$$$$$$$$$$# &$$$$$$$$$$$$$# &$$$$$$$$$$$$$$$$# &$$$$$$$$$$$",
"$# &$$$$$$$$$$$# &$$$$$$$$$$$$$# &$$$$$$$$$$$$$$$$# &$$$$$$$$$$$",
"$# &$$$$$$$$$$$# &$$$$$$$$$$$$$# &$$$$$$$$$$$$$$$$# &$$$$$$$$$$$",
"$X $$$$$$$$$$$$X $$$$$$$$$$$$$$X $$$$$# $$$$$$$$$$X $$$$$$$$$$$$",
"X   $$$$$$$$$$X   $$$$$$$$$$$$X   $$$#  $$$$$$$$$X   $$$$$$$$$$$",
"                                                                ",
"&&&&&&&&&&&   &&&&&&  &&&&&&   &&&&&&&&&&&&&&   &&&&&&&&&&&&&   ",
"&$$$$$$$$$$& &$$&$$$$ $&&$$$& &$$&&$&&&$$$$$$& &$$$&$$$$$&$$$& &",
"$&$$$$$$$$$# &$$$$$&$$$$$$$$# &$$$$$$$$$$$$$$$ &$$$$$$$$$$&$$# &",
"$$$$$$$$$$$  &$$$$$$$$$$$$$$# &$$$$$$$$$$$$$$$ &$$$$$$$$$$$$$# &",
"$$$$$$$$$$   &$$$$$$$$$$$$$$# &$$$$$$$$$$$$$$$  %$$$$$$$$$$$$# &",
"$$$$$$$$$$$# &$$$$$$$$$$$$$$# &$$$$$$$$$$$$$$$ & $$$$$$$$$$$$# &",
"$$$$$$$$$$$X $$$$$$$$$$$$$$$X $$$# $$$$$$$$$$X $$$$$$$$$$$$$$X $",
"$$$$$$$$$$X   $$$$$$$$$$$$$X   $$#  $$$$$$$$X   $$$$$$$$$$$$X   ",
"                                                                ",
"&&&&&&   &&&&&&&&&&&   &&&&&&&&&&&&&&&&   &&&&&..&&&&&&   &&&&&&",
"&$$$$$& &$$$$&$&$$$$& &$$$&&$$$$$$&$&$$& &$$$$&&.&$$&$$& &$$$$&&",
"$$$$$$# &$$$$$$$$$$$# &$$$$$$$$$$$$$$$$# &$$$$$$$$$$$$$# &$$$$$$",
"$$$$$$# & $$$$$$$$$$# &$$$$$$$$$$$$$$$$# &$$$$$$$$$$$$$# &$$$$$$",
"$$$$$$#  $$$$$$$$$$$# &$$$$$$$$$$$$$$$$# &$$$$$$$$$$$$$# &$$$$$$",
"$$$$$$# @$$$$$$$$$$$# &$$$$$$$$$$$$$$$$# &$$$$$$$$$$$$$# &$$$$$$",
"$$$$$$X O$$$$$$$$$$$X $$$$$$$@ $$$$$$$$X $$$$$$$$$$$$$$X $$$$$$$",
"$$$$$X   O$$$$$$$$$X   $$$$OO  $$$$$$$X   $$$$$$$$$$$$X o $$$$$$",
"                                  +o                   oO       ",
"   &&&&&&&&&&&&   &&&&&&&&&&&&&&&& O &&&.&&&&&&& &&&&   &&&&&.&&",
"& &$$$&$$$$&$$$& &$$&$&$$&$$$$&&$$& &$$.&$$&&$$$$ $$$& &$$$$&&$$",
"# &$$&$$$$$$&$$# &$$$$$$$$$$$$$$$$# &$$$$$$$$$$$$$$$$# &$$$&$$$$",
"# &$$$$$$$$$$$$# &$$$$$$$$$$$$$$$$# &$$$$$$$$$$$$$$$$# &$$$$$$$$",
"# &$$$$$$$$$$$$# &$$$$$$$$$$$$$$$$# &$$$$$$$$$$$$$$$$# &$$$$$$$$",
"# &$$$$$$$$$$$$# &$$$$$$$$$$$$$$$$# &$$$$$$$$$$$$$$$$# &$$$$$$$$",
"X $$$+ $$$$$$$$X $$$$$$$$$#.+$$$$$X $$$$$$$@$$$$$$$$$X $$$#O$$$$",
"   $$Oo $$$$$$X   $$$$$$$$$#.o$$$X   $$$$OOO$$$$$$$$X   $#  O$$$",
"                                                                "
};
